<?xml version="1.0" encoding="UTF-8" standalone="no"?>
<!-- Generator: Adobe Illustrator 15.0.0, SVG Export Plug-In . SVG Version: 6.00 Build 0)  -->

<svg
   xmlns:dc="http://purl.org/dc/elements/1.1/"
   xmlns:cc="http://creativecommons.org/ns#"
   xmlns:rdf="http://www.w3.org/1999/02/22-rdf-syntax-ns#"
   xmlns:svg="http://www.w3.org/2000/svg"
   xmlns="http://www.w3.org/2000/svg"
   xmlns:xlink="http://www.w3.org/1999/xlink"
   xmlns:sodipodi="http://sodipodi.sourceforge.net/DTD/sodipodi-0.dtd"
   xmlns:inkscape="http://www.inkscape.org/namespaces/inkscape"
   version="1.1"
   x="0px"
   y="0px"
   width="250.03769"
   height="116.05888"
   viewBox="0 0 250.03769 116.05888"
   xml:space="preserve"
   id="svg2"
   inkscape:version="0.48.4 r9939"
   sodipodi:docname="logo.svg"><metadata
     id="metadata33"><rdf:RDF><cc:Work
         rdf:about=""><dc:format>image/svg+xml</dc:format><dc:type
           rdf:resource="http://purl.org/dc/dcmitype/StillImage" /><dc:title /></cc:Work></rdf:RDF></metadata><defs
     id="defs31" /><sodipodi:namedview
     pagecolor="#ffffff"
     bordercolor="#666666"
     borderopacity="1"
     objecttolerance="10"
     gridtolerance="10"
     guidetolerance="10"
     inkscape:pageopacity="0"
     inkscape:pageshadow="2"
     inkscape:window-width="1366"
     inkscape:window-height="741"
     id="namedview29"
     showgrid="false"
     fit-margin-top="0"
     fit-margin-left="0"
     fit-margin-right="0"
     fit-margin-bottom="0"
     inkscape:zoom="2.3676431"
     inkscape:cx="18.528344"
     inkscape:cy="21.774325"
     inkscape:window-x="0"
     inkscape:window-y="27"
     inkscape:window-maximized="1"
     inkscape:current-layer="svg2" /><symbol
     id="logo2"
     viewBox="-59.933 -58.029 119.867 116.059"
     transform="translate(-235.51331,-330.36655)"
     style="fill:#ff0000"><path
       style="fill:#ff0000"
       d="M 48.034,51.386 C 35.701,65.053 7.496,54.518 -4.716,47.469 -15.44,41.28 -38.393,23.604 -44.457,18.895 l -2.221,17.629 -13.255,-17.418 0.717,-26.302 28.115,-3.031 16.767,13.989 -17.084,1.964 c 0.182,0.095 0.334,0.202 0.452,0.327 5.333,5.666 27.124,18.082 40.5,19.166 12.333,1 26.177,-6.935 28.167,-22.5 2.333,-18.249 -4.53,-29.968 -15.334,-39.499 -7.083,-6.25 -18.583,-10.75 -30,-10.5 -5.82,0.127 -14.565,2.287 -14.333,12.666 0.125,5.584 2.125,10.459 9.5,14.959 5.691,3.473 10.833,4.041 10.833,4.041 l 3.667,2.334 -4.333,2 c -8.417,-1.625 -12.316,-3.43 -17.167,-6.875 -4.75,-3.375 -10.75,-9 -11.75,-19.875 -0.53,-5.775 3.5,-12.375 8.75,-16 6.931,-4.785 21.333,-5.084 33.167,-1.918 19.863,5.314 34,21 41.666,38 12.811,28.405 8,55.667 -4.333,69.334 z"
       id="path5"
       inkscape:connector-curvature="0" /></symbol><g
     id="Layer_1"
     style="display:none"
     transform="translate(-235.51331,-350.36655)"><image
       style="display:inline;overflow:visible"
       width="321"
       height="290"
       xlink:href="/home/marek/Pobrane/szkic_logo.jpg"
       transform="translate(-854.1929,255.3516)"
       id="image8"
       sodipodi:absref="/home/marek/Pobrane/szkic_logo.jpg" /></g><g
     id="Layer_2"
     transform="translate(-235.51331,-350.36655)" /><g
     id="logo"
     transform="translate(-235.51331,-350.36655)" /><g
     id="logo_1_"
     transform="translate(-235.51331,-350.36655)" /><g
     id="logo_3_"
     transform="translate(-235.51331,-350.36655)" /><path
     style="fill:#f25252;fill-opacity:1"
     d="m 107.967,6.643953 c -12.333,-13.667 -40.538,-3.132 -52.75,3.917 -10.724,6.189 -33.677,23.865 -39.741,28.574 l -2.221,-17.629 -13.255,17.418 0.717,26.302 28.115,3.031 16.767,-13.989 -17.084,-1.964 c 0.182,-0.095 0.334,-0.202 0.452,-0.327 5.333,-5.666 27.124,-18.082 40.5,-19.166 12.333,-1 26.177,6.935 28.167,22.5 2.333,18.249 -4.53,29.968 -15.334,39.499 -7.083,6.249997 -18.583,10.749997 -30,10.499997 -5.82,-0.127 -14.565,-2.287 -14.333,-12.665997 0.125,-5.584 2.125,-10.459 9.5,-14.959 5.691,-3.473 10.833,-4.041 10.833,-4.041 l 3.667,-2.334 -4.333,-2 c -8.417,1.625 -12.316,3.43 -17.167,6.875 -4.75,3.375 -10.75,9 -11.75,19.875 -0.53,5.774997 3.5,12.374997 8.75,15.999997 6.931,4.785 21.333,5.084 33.167,1.918 19.863,-5.314 34,-20.999997 41.666,-37.999997 12.811,-28.405 8,-55.667 -4.333,-69.334 z"
     id="path3009"
     inkscape:connector-curvature="0" /><g
     id="g17"
     transform="translate(-235.51331,-350.36655)"><path
       inkscape:connector-curvature="0"
       id="path19"
       d="m 377.06,391.51 c 6.475,1.905 9.712,5.142 9.712,9.712 v 1.801 c 0,9.053 -4.058,15.322 -12.173,18.809 h -4.131 v 1.275 c 0,7.266 1.802,12.334 5.405,15.205 h 1.89 c 2.285,0 5.521,-3.238 9.712,-9.713 l 0.527,0.527 h 0.659 c -2.9,9.346 -6.959,14.02 -12.173,14.02 -4.746,0 -8.613,-8.307 -11.602,-24.918 -0.645,0 -1.04,-1.01 -1.187,-3.031 1.641,-1.26 3.091,-6.52 4.351,-15.777 3.105,-5.273 6.109,-7.91 9.01,-7.91 z m -7.295,22.5 c 0.352,1.993 0.981,2.988 1.89,2.988 h 3.691 c 4.862,-2.285 7.295,-6.943 7.295,-13.975 v -0.615 c -0.615,-4.013 -2.476,-6.02 -5.581,-6.02 -4.864,0 -7.295,5.874 -7.295,17.622 z"
       style="fill:#595959" /><path
       inkscape:connector-curvature="0"
       id="path21"
       d="m 414.554,391.686 0.659,0.703 v 1.187 c -7.706,5.449 -11.558,11.118 -11.558,17.006 v 1.275 c 0,4.307 3.457,10.355 10.371,18.148 l 0.527,2.461 c -2.93,7.676 -8.599,11.514 -17.007,11.514 -4.423,0 -6.636,-1.625 -6.636,-4.877 l 7.251,0.658 h 2.461 c 5.684,-1.377 8.525,-3.809 8.525,-7.295 v -0.658 c 0,-0.996 -2.842,-5.641 -8.525,-13.932 l -1.802,-6.768 c 0,-7.441 4.863,-13.915 14.59,-19.423 h 1.144 z"
       style="fill:#595959" /><path
       inkscape:connector-curvature="0"
       id="path23"
       d="m 440.183,391.686 0.658,0.703 v 1.187 c -7.705,5.449 -11.557,11.118 -11.557,17.006 v 1.275 c 0,4.307 3.457,10.355 10.371,18.148 l 0.527,2.461 c -2.93,7.676 -8.6,11.514 -17.008,11.514 -4.422,0 -6.635,-1.625 -6.635,-4.877 l 7.25,0.658 h 2.461 c 5.684,-1.377 8.525,-3.809 8.525,-7.295 v -0.658 c 0,-0.996 -2.842,-5.641 -8.525,-13.932 l -1.801,-6.768 c 0,-7.441 4.863,-13.915 14.59,-19.423 h 1.144 z"
       style="fill:#595959" /><path
       inkscape:connector-curvature="0"
       id="path25"
       d="m 452.056,401.398 1.891,2.461 c -1.611,1.611 -2.418,6.049 -2.418,13.314 0.176,7.676 1.363,15.146 3.561,22.412 v 1.23 l -1.758,1.891 h -1.803 c -1.934,0 -3.383,-9.537 -4.35,-28.609 0,-8.466 1.23,-12.699 3.691,-12.699 h 1.186 z m 0,-15.82 c 1.553,0 2.988,0.806 4.307,2.417 0,1.202 -1.436,2.608 -4.307,4.219 -1.084,0 -2.08,-0.981 -2.988,-2.944 0.79,-2.227 1.786,-3.457 2.988,-3.692 z"
       style="fill:#595959" /><path
       inkscape:connector-curvature="0"
       id="path27"
       d="m 475.839,388.917 h 0.527 c 4.805,0 7.646,9.082 8.525,27.247 v 10.986 l 0.66,6.635 -0.66,2.461 0.66,5.494 -1.891,1.143 c -1.992,-0.527 -2.988,-1.934 -2.988,-4.219 V 418.58 c 0,-14.15 -1.436,-21.825 -4.307,-23.027 h -0.527 c -4.336,2.227 -6.986,11.133 -7.953,26.718 v 17.008 l 0.658,2.461 c -0.85,2.402 -1.67,3.604 -2.461,3.604 -2.021,0 -3.252,-0.82 -3.691,-2.461 l 0.66,-16.348 -1.803,-27.378 v -3.604 l 2.418,-2.417 c 1.611,0.586 2.416,1.187 2.416,1.802 l -0.615,9.097 0.615,0.615 h 1.188 c 0.001,-5.947 2.856,-11.191 8.569,-15.733 z"
       style="fill:#595959" /></g></svg>